<svg width="448" height="512" viewBox="0 0 448 512" fill="none" xmlns="http://www.w3.org/2000/svg">
<path d="M224 0C206.3 0 192 14.3 192 32V51.2C119 66 64 130.6 64 208V226.8C64 273.8 46.7 319.2 15.5 354.4L8.1 362.7C-0.299999 372.1 -2.3 385.6 2.8 397.1C7.9 408.6 19.4 416 32 416H416C428.6 416 440 408.6 445.2 397.1C450.4 385.6 448.3 372.1 439.9 362.7L432.5 354.4C401.3 319.2 384 273.9 384 226.8V208C384 130.6 329 66 256 51.2V32C256 14.3 241.7 0 224 0ZM269.3 493.3C281.3 481.3 288 465 288 448H224H160C160 465 166.7 481.3 178.7 493.3C190.7 505.3 207 512 224 512C241 512 257.3 505.3 269.3 493.3Z" fill="#2874F0"/>
</svg>
