<svg width="784" height="800" viewBox="0 0 784 800" fill="none" xmlns="http://www.w3.org/2000/svg">
<path d="M676.743 0H107.334C48.7046 0 0.971558 47.696 0.971558 106.363V541.753C0.971558 600.344 48.7046 648.001 107.334 648.001H169.201C169.201 648.001 123.677 752.306 102.764 800C165.355 738.705 257.811 648.001 257.811 648.001H676.706C735.412 648.001 783.03 600.344 783.03 541.753V106.363C783.067 47.696 735.371 0 676.743 0ZM408.933 512.305C402.381 519.048 394.495 522.439 385.238 522.439C376.095 522.439 368.133 519.087 361.657 512.457C355.142 505.791 351.866 497.524 351.866 487.81C351.866 478.515 355.142 470.63 361.657 464.23C368.172 457.906 376.095 454.705 385.238 454.705C394.495 454.705 402.381 457.906 408.933 464.382C415.37 470.858 418.648 478.591 418.648 487.81C418.648 497.411 415.372 505.563 408.933 512.305ZM490.191 272.914C485.087 283.467 471.944 298.21 451.144 317.371C423.906 341.828 407.411 359.886 401.544 371.544C395.753 383.201 392.553 402.515 392.019 429.41H377.239C377.239 407.621 378.382 390.324 380.554 377.753C382.915 365.143 385.925 355.276 389.469 347.924C393.088 340.687 402.307 327.277 417.05 307.695C428.708 292.61 436.897 278.324 441.66 264.875C446.269 251.504 448.821 236.647 448.821 220.57C448.821 198.742 442.573 181.141 430.308 167.77C418.155 154.475 403.031 147.809 385.278 147.809C369.965 147.809 357.277 151.618 346.992 159.161C336.668 166.704 331.64 174.474 331.64 182.475C331.64 186.893 335.221 191.923 342.383 197.484C353.125 205.979 358.611 215.237 358.611 225.256C358.611 234.132 355.792 241.636 349.962 247.503C344.172 253.331 336.895 256.34 328.249 256.34C317.811 256.34 309.048 252.149 301.963 243.769C294.801 235.502 291.22 224.531 291.22 211.007C291.22 189.673 301.048 170.55 320.667 153.559C340.401 136.606 365.087 128.149 394.914 128.149C425.619 128.149 450.686 137.558 470.648 156.529C490.534 175.348 500.515 198.434 500.515 225.672C500.553 243.049 497.049 258.857 490.191 272.914Z" fill="#2874F0"/>
</svg>
