<svg width="24" height="24" viewBox="0 0 24 24" fill="none" xmlns="http://www.w3.org/2000/svg">
<g clip-path="url(#clip0_4_45)">
<path d="M15.393 2.99399C15.4804 2.95343 15.5542 2.88847 15.6056 2.80694C15.6569 2.72541 15.6836 2.63078 15.6824 2.53443C15.6813 2.43809 15.6523 2.34413 15.599 2.26386C15.5457 2.18359 15.4703 2.12044 15.382 2.08199L12.4 0.784992C12.2738 0.729929 12.1376 0.701508 12 0.701508C11.8623 0.701508 11.7262 0.729929 11.6 0.784992L2.53099 4.72799C2.44108 4.7671 2.36465 4.83177 2.31121 4.91397C2.25777 4.99617 2.22968 5.09227 2.23042 5.19031C2.23117 5.28835 2.26072 5.384 2.31541 5.46538C2.37009 5.54676 2.44749 5.61026 2.53799 5.64799L6.09299 7.12899C6.15662 7.15527 6.22499 7.16812 6.29382 7.16674C6.36265 7.16537 6.43045 7.14979 6.49299 7.12099L15.393 2.99399Z" fill="#2874F0"/>
<path d="M13.25 22.494C13.25 22.5777 13.271 22.66 13.3111 22.7334C13.3512 22.8068 13.4091 22.869 13.4794 22.9143C13.5498 22.9596 13.6303 22.9865 13.7138 22.9925C13.7972 22.9986 13.8808 22.9836 13.957 22.949L22.914 18.878C23.0889 18.7985 23.2371 18.6703 23.341 18.5087C23.4449 18.3472 23.5001 18.1591 23.5 17.967V7.212C23.5001 7.12825 23.4793 7.04582 23.4392 6.97225C23.3992 6.89868 23.3414 6.83634 23.271 6.79095C23.2006 6.74556 23.12 6.71857 23.0365 6.71247C22.9529 6.70636 22.8692 6.72133 22.793 6.756L13.543 10.961C13.4556 11.0007 13.3816 11.0648 13.3296 11.1454C13.2777 11.2261 13.25 11.32 13.25 11.416V22.494ZM18.15 13.258C18.2438 13.1643 18.3709 13.1116 18.5035 13.1116C18.6361 13.1116 18.7632 13.1643 18.857 13.258L20.357 14.758C20.4267 14.8279 20.4741 14.9169 20.4933 15.0138C20.5126 15.1106 20.5026 15.211 20.4649 15.3022C20.4271 15.3934 20.3632 15.4714 20.2812 15.5264C20.1992 15.5813 20.1027 15.6108 20.004 15.611H19.254V17.611C19.254 17.8099 19.175 18.0007 19.0343 18.1413C18.8937 18.282 18.7029 18.361 18.504 18.361C18.3051 18.361 18.1143 18.282 17.9737 18.1413C17.833 18.0007 17.754 17.8099 17.754 17.611V15.611H17C16.9012 15.611 16.8046 15.5817 16.7224 15.5268C16.6402 15.4719 16.5762 15.3939 16.5383 15.3027C16.5004 15.2114 16.4904 15.1109 16.5096 15.014C16.5288 14.9171 16.5762 14.828 16.646 14.758L18.15 13.258Z" fill="#2874F0"/>
<path d="M7.927 9.51899C7.85115 9.48738 7.76867 9.47494 7.68687 9.48279C7.60506 9.49064 7.52646 9.51853 7.458 9.56399C7.38945 9.60961 7.33323 9.67145 7.29432 9.74402C7.25542 9.8166 7.23504 9.89765 7.235 9.97999V11.611C7.235 11.8099 7.15598 12.0007 7.01533 12.1413C6.87468 12.282 6.68391 12.361 6.485 12.361C6.28609 12.361 6.09532 12.282 5.95467 12.1413C5.81402 12.0007 5.735 11.8099 5.735 11.611V8.93899C5.73507 8.84017 5.70584 8.74354 5.65103 8.66131C5.59621 8.57908 5.51825 8.51494 5.427 8.47699L1.192 6.71199C1.116 6.68039 1.03337 6.66803 0.951441 6.67602C0.869516 6.68402 0.790832 6.71211 0.722373 6.75782C0.653914 6.80353 0.597798 6.86543 0.559005 6.93803C0.520213 7.01063 0.499945 7.09168 0.5 7.17399V17.945C0.499984 18.1424 0.558372 18.3353 0.667811 18.4996C0.77725 18.6638 0.932846 18.792 1.115 18.868L11.058 23.01C11.1339 23.0416 11.2163 23.054 11.2981 23.0462C11.3799 23.0384 11.4585 23.0105 11.527 22.965C11.5956 22.9194 11.6518 22.8575 11.6907 22.785C11.7296 22.7124 11.75 22.6313 11.75 22.549V11.449C11.7501 11.3502 11.7208 11.2535 11.666 11.1713C11.6112 11.0891 11.5332 11.0249 11.442 10.987L7.927 9.51899Z" fill="#2874F0"/>
<path d="M12.286 9.71001C12.3495 9.73644 12.4179 9.74946 12.4867 9.74825C12.5555 9.74705 12.6234 9.73165 12.686 9.70301L21.55 5.67401C21.6381 5.63398 21.7127 5.56925 21.7647 5.48767C21.8167 5.40609 21.844 5.31117 21.8431 5.2144C21.8423 5.11764 21.8134 5.02321 21.7599 4.94255C21.7065 4.86189 21.6308 4.79848 21.542 4.76001L18.449 3.41501C18.3845 3.38603 18.3146 3.37105 18.244 3.37105C18.1733 3.37105 18.1034 3.38603 18.039 3.41501L9.19997 7.51801C9.11198 7.55884 9.03777 7.62439 8.98638 7.70667C8.935 7.78894 8.90865 7.88439 8.91056 7.98138C8.91247 8.07836 8.94255 8.1727 8.99713 8.25289C9.05171 8.33308 9.12845 8.39566 9.21798 8.433L12.286 9.71001Z" fill="#2874F0"/>
</g>
<defs>
<clipPath id="clip0_4_45">
<rect width="24" height="24" fill="white"/>
</clipPath>
</defs>
</svg>
