<svg width="16" height="16" viewBox="0 0 16 16" fill="none" xmlns="http://www.w3.org/2000/svg">
<path d="M11.3396 10.0467L11.0463 10.447L11.4443 10.7433C11.469 10.7618 11.4875 10.7779 11.5022 10.7927L11.5022 10.7927L11.5043 10.7949L15.3542 14.6447C15.3543 14.6448 15.3543 14.6448 15.3543 14.6449C15.448 14.7387 15.5006 14.8659 15.5006 14.9985C15.5006 15.1311 15.4478 15.2583 15.354 15.3521C15.2601 15.4459 15.1329 15.4985 15.0002 15.4985C14.8676 15.4985 14.7403 15.4457 14.6466 15.3519L14.6465 15.3517L11.101 11.8063L11.8722 11.2403H10.3459H10.3449H10.177C10.3757 11.0862 10.565 10.9195 10.7435 10.7409C11.2326 10.2518 11.633 9.68236 11.9275 9.05807C11.7647 9.4034 11.5683 9.73465 11.3396 10.0467ZM9.6293 11.6195C8.49203 12.3147 7.15065 12.614 5.81685 12.4611C4.31456 12.289 2.93268 11.5559 1.94767 10.4086C0.962653 9.26136 0.447149 7.78446 0.504289 6.27343C0.535666 5.44369 0.738439 4.63727 1.09189 3.90164C0.706492 4.70448 0.500898 5.59079 0.500898 6.4983C0.500898 7.28623 0.656092 8.06644 0.957621 8.7944C1.25915 9.52235 1.70111 10.1838 2.25826 10.7409C2.81541 11.2981 3.47684 11.74 4.2048 12.0416C4.93275 12.3431 5.71297 12.4983 6.5009 12.4983C7.28883 12.4983 8.06905 12.3431 8.797 12.0416C9.08543 11.9221 9.36342 11.7806 9.62862 11.6186L9.6293 11.6195Z" fill="#2874F0" stroke="#2874F0"/>
<path d="M12.2546 6.5C12.2546 9.67564 9.68028 12.25 6.50465 12.25C3.32901 12.25 0.754646 9.67564 0.754646 6.5C0.754646 3.32436 3.32901 0.75 6.50465 0.75C9.68028 0.75 12.2546 3.32436 12.2546 6.5Z" stroke="#2874F0" stroke-width="1.5" stroke-miterlimit="3.74669"/>
</svg>
