<svg width="454" height="292" viewBox="0 0 454 292" fill="none" xmlns="http://www.w3.org/2000/svg">
<path d="M444.6 105.551C447.185 104.046 449.33 101.889 450.822 99.2957C452.313 96.7024 453.098 93.7634 453.098 90.772V17.75C453.098 15.5046 452.656 13.2811 451.797 11.2066C450.938 9.13209 449.678 7.24713 448.091 5.65939C446.503 4.07164 444.618 2.81221 442.543 1.95302C440.469 1.09383 438.245 0.651704 436 0.651901H320.098V29.1519C320.098 33.6866 318.297 38.0356 315.09 41.2421C311.884 44.4486 307.535 46.25 303 46.25C298.465 46.25 294.116 44.4486 290.91 41.2421C287.703 38.0356 285.902 33.6866 285.902 29.1519V0.651901H18C15.7546 0.651691 13.5311 1.0938 11.4566 1.95299C9.38206 2.81217 7.4971 4.0716 5.90935 5.65935C4.3216 7.24709 3.06218 9.13206 2.20299 11.2066C1.3438 13.2811 0.901691 15.5046 0.901901 17.75V90.772C0.902269 93.7634 1.68721 96.7024 3.17838 99.2957C4.66955 101.889 6.8148 104.046 9.4 105.551C16.5547 109.608 22.5054 115.49 26.6451 122.597C30.7848 129.704 32.9654 137.782 32.9645 146.007C32.9635 154.232 30.7811 162.31 26.6397 169.416C22.4984 176.522 16.5464 182.403 9.3907 186.458C6.80668 187.964 4.66285 190.121 3.17329 192.715C1.68373 195.308 0.900568 198.247 0.902002 201.237V274.25C0.901792 276.495 1.3439 278.719 2.20308 280.793C3.06226 282.868 4.32168 284.753 5.90941 286.341C7.49715 287.928 9.3821 289.188 11.4566 290.047C13.5311 290.906 15.7546 291.348 18 291.348H285.902V262.848C285.902 258.313 287.703 253.964 290.91 250.758C294.116 247.551 298.465 245.75 303 245.75C307.535 245.75 311.884 247.551 315.09 250.758C318.297 253.964 320.098 258.313 320.098 262.848V291.348H436C438.245 291.348 440.469 290.906 442.543 290.047C444.618 289.188 446.503 287.928 448.091 286.341C449.678 284.753 450.938 282.868 451.797 280.793C452.656 278.719 453.098 276.495 453.098 274.25V201.237C453.098 198.246 452.313 195.307 450.822 192.714C449.331 190.12 447.185 187.964 444.6 186.458C437.446 182.401 431.496 176.52 427.356 169.413C423.217 162.306 421.036 154.229 421.036 146.005C421.036 137.78 423.217 129.703 427.356 122.596C431.496 115.49 437.446 109.608 444.6 105.551ZM320.098 203.951C320.098 208.486 318.297 212.834 315.09 216.041C311.884 219.248 307.535 221.049 303 221.049C298.465 221.049 294.116 219.248 290.91 216.041C287.703 212.834 285.902 208.486 285.902 203.951V175.451C285.902 170.916 287.703 166.567 290.91 163.361C294.116 160.154 298.465 158.353 303 158.353C307.535 158.353 311.884 160.154 315.09 163.361C318.297 166.567 320.098 170.916 320.098 175.451V203.951ZM320.098 116.549C320.098 121.084 318.297 125.433 315.09 128.639C311.884 131.846 307.535 133.647 303 133.647C298.465 133.647 294.116 131.846 290.91 128.639C287.703 125.433 285.902 121.084 285.902 116.549V88.049C285.902 83.5143 287.703 79.1653 290.91 75.9588C294.116 72.7523 298.465 70.9509 303 70.9509C307.535 70.9509 311.884 72.7523 315.09 75.9588C318.297 79.1653 320.098 83.5143 320.098 88.049V116.549Z" fill="#2874F0"/>
</svg>
